# xmcd
#
# Track frame offsets:
#	150
#	19278
#	55997
#	70648
#	82502
#	94722
#	102278
#	125389
#
# Disc length: 1757 seconds
#
# Revision: 1
# Processed by: cddbd v1.5.1PL0 Copyright (c) Steve Scherf et al.
# Submitted via: CDex 1.50Beta5
#
DISCID=5806db08
DTITLE=Deep Blue - 3LDK ドラマCD スーパーアイドル・お料理大作戦
DYEAR=2003
DGENRE=Soundtrack
TTITLE0=プロローグ
TTITLE1=スーパーアイドルのお料理大作戦！
TTITLE2=スーパーアイドルのお味
TTITLE3=鯉だよ！全員集合
TTITLE4=蓬のいろいろレシピ
TTITLE5=淺川家の食卓
TTITLE6=スーパーアイドルの超・料理大作戦！！
TTITLE7=スタッフ＆キャスト・クレジット
EXTD=
EXTT0=
EXTT1=
EXTT2=
EXTT3=
EXTT4=
EXTT5=
EXTT6=
EXTT7=
PLAYORDER=
